<?xml version="1.0" encoding="utf-8"?>
<!-- Generator: Adobe Illustrator 24.1.2, SVG Export Plug-In . SVG Version: 6.00 Build 0)  -->
<svg width="260" height="120" version="1.1" id="Layer_1" xmlns="http://www.w3.org/2000/svg" xmlns:xlink="http://www.w3.org/1999/xlink" x="0px" y="0px"
	 viewBox="0 0 260 120" style="enable-background:new 0 0 260 120;" xml:space="preserve">
<style type="text/css">
	.st0{fill:#FFFFFF;}
	.st1{fill:#DA2229;}
	.st2{fill:#3F1B51;}
	.st3{fill:#DA2129;}
</style>
<path class="st0" d="M52.3512,71.0847L52.3512,71.0847c0.002,0,0.005,0,0.007,0H52.3512z M231.9742,96.4227
	c-0.545-2.828-0.41-5.278,0.581-8.015c1.824-5.038,4.604-9.765,7.05-14.513c0.527-1.024,1.396-1.828,2.459-2.269
	c3.159-1.307,10.586-5.138,13.567-9.689c1.672-2.797,2.843-6.174,2.843-9.176c0-8.426-6.409-15.281-14.286-15.281
	c-2.049,0-3.996,0.468-5.76,1.302c-0.102-0.083-0.723-0.605-1.453-1.52c2.012-1.378,3.567-3.48,4.426-6.013
	c1.217-3.592,0.695-7.8-1.395-11.258c-0.967-1.6-2.351-1.932-3.101-1.986c-0.733-1.283-1.571-2.409-2.382-3.466
	c-4.529-5.901-10.166-7.797-11.785-7.996l-0.249-0.029h-0.222c-0.974,0-1.896,0.379-2.578,1.029
	c-0.354-0.315-0.706-0.617-1.062-0.907c-2.544-2.078-5.466-3.628-9.195-4.878c-2.037-0.682-4.05-1.101-5.982-1.243
	c-1.872-0.138-11.303-0.205-11.396-0.205h-41.774h-87.362c-3.592,0-6.514,2.923-6.514,6.522c0,2.02,0.924,3.828,2.371,5.024h-25.829
	c-3.672,0-6.645,3.053-6.511,6.762c0.127,3.529,3.136,6.275,6.668,6.275h1.675c-1.443,1.196-2.364,3.003-2.364,5.024
	c0,2.024,0.929,3.836,2.382,5.032H8.6412c-3.672,0-6.644,3.053-6.511,6.762c0.127,3.529,3.136,6.275,6.668,6.275h7.993
	c-1.474,1.219-2.406,3.074-2.371,5.143c0.061,3.584,3.108,6.402,6.692,6.402h27.117c-1.454,1.197-2.382,3.011-2.382,5.04
	l-0.153,0.915c-0.541,3.232-3.338,5.599-6.614,5.599h-4.515h-4.324c-2.163,0-3.27,2.593-1.775,4.156l3.179,3.323
	c0.112,0.116,0.171,0.27,0.168,0.43l-2.931,12.803l-5.617,24.097c-0.453,1.94,1.02,3.796,3.013,3.796h150.797
	c3.035,0,5.67-2.091,6.359-5.047l0.91-3.905h0.015l2.195-9.722c0.266-1.138,1.265-1.701,2.285-1.685
	c12.154,0.446,18.835,9.855,31.154,10.81c10.717,0.831,12.583-4.562,12.86-6.32
	C233.3292,100.8057,232.3272,98.2577,231.9742,96.4227"/>
<path class="st1" d="M56.0412,117.0405l1.283-5.604c0.057-0.333-0.047-0.67-0.274-0.909l-0.077-0.08h2.894l-1.509,6.593H56.0412z"/>
<path class="st1" d="M117.3677,114.5969l1.772-2.361l0.684,2.361H117.3677z M120.7267,110.4109h-3.468l0.077,0.08
	c0.04,0.042,0.074,0.087,0.105,0.133c0.023,0.031,0.043,0.063,0.067,0.109c0.155,0.331,0.027,0.745-0.393,1.268l-4.047,5.04h2.439
	l0.244-0.316l0.048-0.061l0.65-0.843h0.007l0.867-1.113c0,0-0.252,0.502-0.36,1.113h3.179l0.372,1.22h2.403L120.7267,110.4109z"/>
<path class="st1" d="M97.4933,114.5969l1.772-2.361l0.684,2.361H97.4933z M100.8523,110.4109h-3.468l0.077,0.08
	c0.04,0.042,0.074,0.087,0.105,0.133c0.023,0.031,0.043,0.063,0.067,0.109c0.155,0.331,0.027,0.745-0.393,1.268l-4.047,5.04h2.439
	l0.244-0.316l0.048-0.061l0.65-0.843h0.007l0.867-1.113c0,0-0.252,0.502-0.36,1.113h3.179l0.372,1.22h2.404L100.8523,110.4109z"/>
<path class="st1" d="M149.5499,110.4594l-0.988,0.936l-0.098,0.093l-1.794,1.701l-0.72,0.681c0,0,0.316-0.414,0.56-0.951
	l-0.001-0.009l-1.411-2.451l-2.988,0.001l0.077,0.081c0.248,0.259,0.346,0.623,0.263,0.972l-1.305,5.528h2.255l0.965-4.095
	l1.78,2.779l2.299-2.039c0.635-0.561,1.031-1.525,1.031-1.525l-0.178,0.769l-0.957,4.111h2.294l1.56-6.582H149.5499z"/>
<path class="st1" d="M91.2245,110.4594l-0.988,0.936l-0.098,0.093l-1.794,1.701l-0.72,0.681c0,0,0.316-0.414,0.56-0.951
	l-0.001-0.009l-1.411-2.451l-2.988,0.001l0.077,0.081c0.248,0.259,0.346,0.623,0.263,0.972l-1.305,5.528h2.255l0.965-4.095
	l1.78,2.779l2.299-2.039c0.635-0.561,1.031-1.525,1.031-1.525l-0.178,0.769l-0.957,4.111h2.294l1.56-6.582H91.2245z"/>
<path class="st1" d="M172.7092,110.4173l-0.956,1.41l2.756-0.001v0.001h1.29c-0.015,0.002-0.758,0.126-1.401,0.467l-1.123,4.705
	h2.885l-0.077-0.08c-0.249-0.26-0.347-0.623-0.263-0.973l0.97-4.119h2.747l0.327-1.41H172.7092z"/>
<path class="st1" d="M168.739,110.4478l-0.952,4.003l-0.001-0.002l-0.18,0.76c0,0,0.023-0.629-0.193-1.311l-0.12-0.177l-2.214-3.273
	h-2.795l0.076,0.08c0.249,0.26,0.347,0.623,0.264,0.972l-1.307,5.53h2.268l0.453-1.923h-0.001l0.32-1.355l0.363-1.553
	c0,0-0.007,0.53,0.151,1.136l2.518,3.695h2.059l1.559-6.582H168.739z"/>
<path class="st1" d="M111.3957,110.4478l-0.952,4.003l-0.001-0.002l-0.18,0.76c0,0,0.023-0.629-0.193-1.311l-0.12-0.177
	l-2.214-3.273h-2.795l0.077,0.08c0.248,0.26,0.346,0.623,0.263,0.972l-1.307,5.53h2.268l0.453-1.923h-0.001l0.32-1.355l0.364-1.553
	c0,0-0.008,0.53,0.15,1.136l2.518,3.695h2.059l1.559-6.582H111.3957z"/>
<path class="st1" d="M67.6691,110.4478l-0.952,4.003l-0.001-0.002l-0.18,0.76c0,0,0.023-0.629-0.193-1.311l-0.12-0.177l-2.214-3.273
	h-2.795l0.077,0.08c0.248,0.26,0.346,0.623,0.263,0.972l-1.307,5.53h2.267l0.454-1.923h-0.001l0.32-1.355l0.364-1.553
	c0,0-0.008,0.53,0.15,1.136l2.518,3.695h2.059l1.559-6.582H67.6691z"/>
<path class="st1" d="M43.8121,110.4478l-0.952,4.003l-0.001-0.002l-0.18,0.76c0,0,0.023-0.629-0.193-1.311l-0.12-0.177l-2.214-3.273
	h-2.795l0.076,0.08c0.249,0.26,0.347,0.623,0.264,0.972l-1.307,5.53h2.268l0.453-1.923h-0.001l0.32-1.355l0.364-1.553
	c0,0-0.008,0.53,0.15,1.136l2.518,3.695h2.059l1.559-6.582H43.8121z"/>
<path class="st1" d="M127.8828,114.1018l-0.076,0.334h1.875c0,0-0.001,0.001-0.001,0.002h0.181
	c-0.111,0.293-0.335,0.717-0.777,1.109v0.001c-0.001,0-0.001,0-0.002,0.001c-0.488,0.433-1.242,0.826-2.404,0.959
	c0,0,0.512-0.143,0.989-0.734c-0.029-0.002-0.059-0.002-0.088-0.005c-0.12-0.013-0.239-0.03-0.355-0.054
	c-0.05-0.011-0.099-0.021-0.145-0.032c-0.242-0.064-0.466-0.153-0.663-0.27c-0.217-0.129-0.398-0.294-0.538-0.489
	c-0.143-0.199-0.232-0.432-0.265-0.694c-0.041-0.333,0.002-0.655,0.127-0.958c0.125-0.3,0.322-0.566,0.584-0.791
	c0.26-0.221,0.583-0.398,0.96-0.526c0.375-0.128,0.806-0.193,1.28-0.193c0.509,0,0.969,0.069,1.367,0.207
	c0.362,0.124,0.69,0.281,0.976,0.466l1.356-1.076c-0.145-0.11-0.317-0.218-0.514-0.324c-0.255-0.136-0.547-0.258-0.87-0.362
	c-0.324-0.105-0.69-0.191-1.085-0.254c-0.397-0.064-0.824-0.096-1.268-0.096c-0.854,0-1.631,0.11-2.309,0.326
	c-0.675,0.216-1.251,0.511-1.712,0.876c-0.457,0.364-0.798,0.787-1.013,1.258c-0.213,0.467-0.289,0.968-0.225,1.489
	c0.062,0.501,0.237,0.937,0.522,1.294c0.288,0.362,0.653,0.667,1.084,0.905c0.432,0.24,0.92,0.42,1.45,0.534
	c0.532,0.115,1.074,0.173,1.613,0.173c0.668,0,1.284-0.065,1.831-0.192c0.525-0.122,0.998-0.275,1.406-0.456l0.829-3.231h-3.576
	L127.8828,114.1018z"/>
<path class="st1" d="M51.1471,114.1018l-0.076,0.334h1.875c0,0-0.001,0.001-0.001,0.002h0.181c-0.111,0.293-0.335,0.717-0.777,1.109
	v0.001c0,0-0.001,0-0.002,0.001c-0.488,0.433-1.242,0.826-2.404,0.959c0,0,0.512-0.143,0.989-0.734
	c-0.029-0.002-0.06-0.002-0.088-0.005c-0.12-0.013-0.239-0.03-0.355-0.054c-0.05-0.011-0.099-0.021-0.145-0.032
	c-0.242-0.064-0.466-0.153-0.663-0.27c-0.217-0.129-0.398-0.294-0.538-0.489c-0.143-0.199-0.232-0.432-0.265-0.694
	c-0.041-0.333,0.002-0.655,0.128-0.958c0.124-0.3,0.321-0.566,0.583-0.791c0.26-0.221,0.583-0.398,0.96-0.526
	c0.375-0.128,0.806-0.193,1.28-0.193c0.509,0,0.969,0.069,1.367,0.207c0.362,0.124,0.69,0.281,0.976,0.466l1.356-1.076
	c-0.145-0.11-0.317-0.218-0.514-0.324c-0.255-0.136-0.547-0.258-0.869-0.362c-0.325-0.105-0.691-0.191-1.086-0.254
	c-0.397-0.064-0.824-0.096-1.267-0.096c-0.855,0-1.632,0.11-2.31,0.326c-0.675,0.216-1.251,0.511-1.712,0.876
	c-0.457,0.364-0.798,0.787-1.013,1.258c-0.213,0.467-0.289,0.968-0.225,1.489c0.062,0.501,0.237,0.937,0.522,1.294
	c0.288,0.362,0.653,0.667,1.084,0.905c0.432,0.24,0.92,0.42,1.45,0.534c0.532,0.115,1.075,0.173,1.613,0.173
	c0.668,0,1.284-0.065,1.831-0.192c0.525-0.122,0.998-0.275,1.406-0.456l0.829-3.231h-3.576L51.1471,114.1018z"/>
<path class="st1" d="M153.4065,110.4478l0.077,0.08c0.248,0.26,0.346,0.623,0.262,0.972l-1.309,5.53h7.148l0.318-1.361h-4.893
	l0.247-0.982c-0.514-0.251-0.97-0.349-0.97-0.349l1.058-0.001l4.039-0.001l0.294-1.243h-4.057l0.228-0.896l0.008-0.034
	c-0.515-0.252-0.971-0.35-0.971-0.35h1.061l0.001-0.003l4.366-0.001l0.675-0.994l0.089-0.367H153.4065z"/>
<path class="st1" d="M133.455,110.4478l0.077,0.08c0.248,0.26,0.346,0.623,0.262,0.972l-1.309,5.53h7.148l0.318-1.361h-4.893
	l0.247-0.982c-0.514-0.251-0.97-0.349-0.97-0.349l1.058-0.001l4.039-0.001l0.294-1.243h-4.057l0.228-0.896l0.008-0.034
	c-0.515-0.252-0.971-0.35-0.971-0.35h1.061v-0.003l4.367-0.001l0.675-0.994l0.089-0.367H133.455z"/>
<path class="st1" d="M71.1818,110.4478l0.077,0.08c0.248,0.26,0.346,0.623,0.262,0.972l-1.309,5.53h7.148l0.318-1.361h-4.893
	l0.247-0.982c-0.514-0.251-0.97-0.349-0.97-0.349l1.058-0.001l4.039-0.001l0.294-1.243h-4.057l0.228-0.896l0.008-0.034
	c-0.515-0.252-0.971-0.35-0.971-0.35h1.061l0.001-0.003l4.366-0.001l0.675-0.994l0.089-0.367H71.1818z"/>
<path class="st1" d="M28.4127,110.4478l0.077,0.08c0.248,0.26,0.346,0.623,0.262,0.972l-1.309,5.53h7.148l0.318-1.361h-4.893
	l0.247-0.982c-0.514-0.251-0.97-0.349-0.97-0.349l1.058-0.001l4.039-0.001l0.294-1.243h-4.057l0.228-0.896l0.008-0.034
	c-0.515-0.252-0.971-0.35-0.971-0.35h1.061v-0.003l4.367-0.001l0.675-0.994l0.089-0.367H28.4127z"/>
<path class="st2" d="M130.6399,94.5094c0,0,0.175-2.656-0.439-5.259l-11.523-14.761h-19.318l1.277,1.334
	c0.909,0.949,1.32,2.261,1.132,3.548l-6.057,26.454h11.785l5.142-22.46c-0.02,0.367-0.108,2.526,0.346,4.763l13.816,17.697h13.048
	l7.175-31.336h-11.785L130.6399,94.5094z"/>
<path class="st2" d="M58.3933,94.5726c-0.712,1.64-2.338,2.741-4.178,2.741h-9.48c-1.368,1.459-2.257,3.047-2.428,3.363
	l5.996-26.187h-15.311l1.276,1.334c0.91,0.949,1.32,2.26,1.133,3.548l-6.057,26.454h37.199l3.051-13.325h-10.532L58.3933,94.5726z"
	/>
<path class="st2" d="M78.1631,74.4893l1.277,1.334c0.91,0.95,1.32,2.261,1.132,3.548l-6.057,26.455h11.785l7.175-31.337H78.1631z"/>
<path class="st2" d="M165.4587,92.5011l21.644-18.012h-16.34l-21.261,18.012c2.766,0,5.376,1.274,7.077,3.453l7.707,9.872h16.339
	l-11.226-14.381C167.3467,91.8231,165.4587,92.5011,165.4587,92.5011"/>
<path class="st1" d="M79.5019,44.873c0,1.751-1.42,3.171-3.171,3.171h-0.008c-1.751,0-3.171-1.42-3.171-3.171v-0.007
	c0-1.752,1.42-3.171,3.171-3.171h0.008c1.751,0,3.171,1.419,3.171,3.171V44.873z M60.0359,6.597v0.007
	c0,1.592,1.291,2.883,2.883,2.883h19.59c1.592,0,2.883,1.291,2.883,2.883v0.007c0,1.592-1.291,2.883-2.883,2.883h-49.563
	c-1.592,0-2.883,1.29-2.883,2.883v0.006c0,1.593,1.291,2.883,2.883,2.883h34.392c1.592,0,2.883,1.291,2.883,2.883
	c0,1.593-1.291,2.883-2.883,2.883h-28.408c-1.592,0-2.883,1.291-2.883,2.883v0.007c0,1.593,1.291,2.883,2.883,2.883h37.33
	c1.592,0,2.883,1.291,2.883,2.883v0.016c0,1.592-1.291,2.883-2.883,2.883H8.6409c-1.592,0-2.883,1.291-2.883,2.883v0.007
	c0,1.592,1.291,2.883,2.883,2.883h37.674c1.592,0,2.883,1.29,2.883,2.883v0.007c0,1.592-1.291,2.883-2.883,2.883h-25.38
	c-1.593,0-2.883,1.29-2.883,2.882v0.007c0,1.593,1.29,2.883,2.883,2.883h40.371c1.592,0,2.883,1.291,2.883,2.883v0.016
	c0,1.592-1.291,2.883-2.883,2.883h-8.944c-1.592,0-2.883,1.29-2.883,2.883v0.007c0,1.592,1.291,2.883,2.883,2.883l81.728-0.007
	c-1.751,0-3.171-1.42-3.171-3.171V64.04c0-1.751,1.42-3.171,3.171-3.171h2.275c1.751,0,3.171-1.419,3.171-3.171v-0.017
	c0-1.751-1.42-3.171-3.171-3.171h-23.854c-1.751,0-3.171-1.419-3.171-3.17v-0.008c0-1.751-1.42-3.171-3.171-3.171h-16.037
	c-1.751,0-3.171-1.42-3.171-3.171v-0.007c0-1.752,1.42-3.171,3.171-3.171h1.562c1.751,0,3.171-1.42,3.171-3.171v-0.008
	c0-1.751,1.419-3.171,3.171-3.171h24.159c1.761,0,3.188-1.427,3.188-3.187c0-1.752,1.42-3.171,3.171-3.171h10.616
	c1.821,0,3.283-1.535,3.164-3.382c-0.109-1.686-1.584-2.96-3.273-2.96h-26.55c-1.751,0-3.171-1.42-3.171-3.171v-0.007
	c0-1.752,1.42-3.171,3.171-3.171h12.825c1.751,0,3.17-1.42,3.17-3.171v-0.008c0-1.751,1.42-3.171,3.171-3.171h12.261
	c1.752,0,3.171-1.419,3.171-3.171V6.885c0-1.751,1.42-3.171,3.171-3.171h-87.361C61.3269,3.714,60.0359,5.005,60.0359,6.597"/>
<path class="st1" d="M165.5732,22.7479h-0.007c-1.752,0-3.171,1.42-3.171,3.171v0.007c0,1.752,1.419,3.171,3.171,3.171h0.007
	c1.751,0,3.171-1.419,3.171-3.171v-0.007C168.7442,24.1679,167.3242,22.7479,165.5732,22.7479"/>
<path class="st1" d="M153.8169,54.5104h-0.007c-1.752,0-3.171,1.42-3.171,3.171v0.007c0,1.752,1.419,3.171,3.171,3.171h0.007
	c1.751,0,3.171-1.419,3.171-3.171v-0.007C156.9879,55.9304,155.5679,54.5104,153.8169,54.5104"/>
<path class="st2" d="M216.3928,57.0946c-4.75,0-8.6-4.247-8.6-9.486c0-3.924,2.16-7.289,5.24-8.733
	c0.064-0.03,0.128,0.043,0.091,0.103c-0.323,0.518-0.631,1.131-0.856,1.839c-0.04,0.125,0.041,0.256,0.17,0.284
	c3.536,0.765,6.201,4.152,6.201,8.216c0,2.265-0.829,4.318-2.174,5.826c-0.091,0.101,0.346,0.288,0.972,0.244
	c5.535-0.391,6.984-6.197,6.984-6.197s0.458,0.464,0.068,1.623C223.2968,54.4746,220.1228,57.0946,216.3928,57.0946
	 M216.2468,35.1636c-6.173,0-11.177,5.436-11.177,12.141c0,6.705,5.004,12.141,11.177,12.141c6.173,0,11.177-5.436,11.177-12.141
	C227.4238,40.5996,222.4198,35.1636,216.2468,35.1636"/>
<path class="st2" d="M244.3277,61.9269c-4.527,0-8.197-4.075-8.197-9.103c0-3.764,2.059-6.993,4.995-8.378
	c0.061-0.029,0.121,0.041,0.086,0.099c-0.307,0.497-0.601,1.084-0.816,1.764c-0.038,0.12,0.04,0.246,0.162,0.272
	c3.371,0.735,5.911,3.984,5.911,7.883c0,2.173-0.79,4.144-2.072,5.59c-0.087,0.098,0.33,0.277,0.926,0.235
	c5.276-0.376,6.657-5.946,6.657-5.946s0.437,0.445,0.065,1.557C250.9087,59.4129,247.8827,61.9269,244.3277,61.9269
	 M244.1887,40.8839c-5.884,0-10.654,5.216-10.654,11.649c0,6.434,4.77,11.649,10.654,11.649c5.884,0,10.654-5.215,10.654-11.649
	C254.8427,46.0999,250.0727,40.8839,244.1887,40.8839"/>
<path class="st2" d="M229.6099,79.5362c-0.601,1.819-2.435,2.231-4.148,2.351c-0.5,0.036-1.001,0.054-1.5,0.055
	c-2.952,0.009-5.886-0.564-8.65-1.61c-0.514-0.195-1.032-0.385-1.532-0.612c-0.341-0.153-0.679-0.335-0.977-0.559
	c-0.553-0.416-0.792-0.994-0.68-1.685c0.122-0.759,0.551-1.33,1.176-1.754c0.314-0.213,0.661-0.204,0.987-0.012
	c0.2,0.117,0.389,0.254,0.571,0.396c0.691,0.539,1.424,0.595,2.2,0.204c0.181-0.091,0.361-0.184,0.543-0.273
	c0.415-0.203,0.849-0.244,1.259-0.031c0.873,0.454,1.705,0.39,2.575-0.037c0.598-0.293,1.243-0.223,1.851,0.053
	c0.237,0.108,0.464,0.238,0.697,0.355c0.901,0.45,1.845,0.675,2.858,0.561c0.26-0.029,0.522-0.03,0.782-0.046
	C228.8169,76.8212,230.0459,78.2182,229.6099,79.5362 M222.2739,95.1922c-1.176,0.417-2.448,0.479-3.695,0.452
	c-0.994-0.022-2-0.1-2.94-0.422c-1.493-0.509-2.543-1.705-3.157-3.13c-0.734-1.701-1.21-3.559-1.16-5.422
	c0.021-0.753,0.131-1.947,0.85-2.366c0.343-0.199,0.769-0.188,1.158-0.111c1.464,0.292,2.406,1.47,3.332,2.543
	c0.984,1.141,1.855,2.385,2.498,3.751c0.033,0.069,0.125,0.277,0.233,0.301c0.033,0.008,0.068-0.002,0.103-0.038
	c0.057-0.059,0.059-0.149,0.055-0.23c-0.049-1.099-0.352-2.234-0.563-3.312c-0.064-0.33-0.002-0.636,0.202-0.906
	c0.62-0.822,2.254-1.694,3.574-1.217c1.281,0.463,1.826,1.632,2.132,2.895c0.261,1.082,0.514,2.272,0.487,3.381
	C225.3379,93.2042,223.9359,94.6042,222.2739,95.1922 M234.0729,76.4752c-0.685-0.109-1.379,0.34-2.082,0.33
	c-0.702-0.01-1.369-0.26-1.948-0.648c-0.699-0.468-1.402-0.931-2.115-1.378c-2.186-1.369-4.53-1.676-7.018-1.032
	c-1.009,0.261-2.02,0.506-3.059,0.649c-1.829,0.252-3.511,0.004-5.245-0.587c-0.217-0.075-0.439-0.149-0.669-0.15
	c-1.169-0.005-1.678,1.283-1.945,2.516c-1.563,7.219-0.746,14.263,1.866,20.242c0.246,0.561,1.963,3.622,2.837,3.036
	c-0.022-0.117-0.075-0.194-0.132-0.298c-0.364-0.666-0.781-1.312-1.017-2.039c-0.04-0.123-0.071-0.268,0.005-0.373
	c0.074-0.101,0.223-0.118,0.345-0.087c0.737,0.188,1.426,0.516,2.183,0.671c0.781,0.16,1.576,0.25,2.371,0.313
	c2.085,0.166,4.176,0.125,6.259-0.093c0.749-0.079,1.377,0.165,1.88,0.7c0.17,0.181,0.322,0.434,0.362,0.674
	c0.127,0.782-0.058,1.502-0.591,2.107c-0.525,0.596-1.111,0.688-1.784,0.282c-0.198-0.119-0.373-0.278-0.567-0.403
	c-0.556-0.359-1.139-0.396-1.738-0.117c-0.184,0.086-0.36,0.187-0.542,0.278c-0.46,0.233-0.921,0.313-1.417,0.079
	c-0.935-0.442-2.039-0.208-2.965,0.143c-0.182,0.069-0.381,0.169-0.433,0.355c-0.003,0.009-0.005,0.019-0.007,0.028
	c-0.169,0.772,1.797,1.51,2.323,1.718c1.612,0.639,3.381,0.849,5.091,0.537c2.694-0.492,5.915-2.334,5.307-5.507
	c-0.18-0.939-0.405-1.87-0.634-2.799c-0.404-1.63-0.48-3.265-0.146-4.915c0.271-1.34,0.721-2.627,1.176-3.911
	c1.162-3.277,2.726-6.377,4.389-9.423c0.096-0.176,0.194-0.377,0.132-0.566C234.4829,76.6142,234.2729,76.5072,234.0729,76.4752"/>
<path class="st2" d="M249.4586,64.2142c-0.12-0.016-0.286,0.084-0.388,0.137c-0.385,0.2-0.758,0.427-1.153,0.606
	c-2.478,1.121-5.015,1.336-7.626,0.495c-1.926-0.621-3.559-1.707-4.928-3.166c-3.129-3.334-4.338-7.284-3.529-11.79
	c0.589-3.278,2.224-6.053,4.939-8.029c0.194-0.141,0.612-0.405,0.612-0.405s-0.188-0.217-0.956,0.071
	c-2.729,1.022-5.061,2.679-6.638,5.172c-0.229,0.362-0.45,0.651-0.915,0.703c-0.453,0.052-0.503,0.483-0.525,0.849
	c-0.087,1.459-0.287,2.911-0.825,4.279c-0.144,0.366-0.138,0.736-0.03,1.11c0.346,1.199,0.688,2.398,1.036,3.596
	c0.399,1.367,1.767,1.732,2.719,2.62c0.322,0.301,0.604,0.65,0.803,1.044c0.205,0.406,0.279,0.854,0.413,1.284
	c0.502,1.617,2.341,2.227,3.819,2.563c0.579,0.132,1.054,0.313,1.199,0.948c0.163,0.712-0.018,1.55-0.11,2.266
	c-0.096,0.741-0.224,1.493-0.364,2.219c-0.057,0.296,0.043,0.466,0.225,0.29c0.501-0.486,0.922-1.033,1.394-1.545
	c0.823-0.823,1.85-1.237,2.94-1.43c2.921-0.514,5.269-1.522,6.432-2.285C249.3646,64.9232,249.5706,64.2292,249.4586,64.2142"/>
<path class="st2" d="M234.2968,29.9822c-0.447,0.438-0.98,0.789-1.449,1.209c-0.309,0.276-0.862,0.661-0.536,1.133
	c0.262,0.38,1.399,2.039,1.53,2.134c0.069,0.051,0.138,0.066,0.206,0.06c0.126-0.012,0.249-0.096,0.363-0.16
	c1.714-0.958,2.928-2.667,3.551-4.504c0.91-2.687,0.402-5.789-1.063-8.212c-0.246-0.408-0.353-0.213-0.324-0.065
	c0.365,1.867,0.101,5.179-1.115,7.002C235.1218,29.0842,234.7318,29.5562,234.2968,29.9822"/>
<path class="st2" d="M221.6976,66.9299c0.567,0.411,1.285,0.605,1.982,0.547c0.714-0.058,1.315-0.437,1.951-0.73
	c0.319-0.147,0.658-0.271,1.009-0.31c0.277-0.03,0.632,0.097,0.89-0.029c0.027-0.013,0.049-0.029,0.066-0.05
	c0.067-0.084,0.074-0.264,0.033-0.358c-0.05-0.115-0.17-0.18-0.281-0.237c-0.939-0.48-1.872-0.956-2.95-0.917
	c-1.014,0.036-2.02,0.323-2.897,0.833C220.8706,66.0449,221.2426,66.5999,221.6976,66.9299"/>
<path class="st2" d="M231.0245,66.9786c0.202,0.014,0.406-0.004,0.599-0.064c0.256-0.081,0.491-0.243,0.634-0.469
	c0.574-0.907-1.103-0.785-1.524-0.538c-0.147,0.085-0.283,0.199-0.36,0.351c-0.076,0.152-0.081,0.347,0.02,0.483
	c0.098,0.134,0.27,0.187,0.433,0.214C230.8925,66.9666,230.9585,66.9736,231.0245,66.9786"/>
<path class="st2" d="M200.5689,57.1676c-0.514,0.062-0.99-0.372-1.062-0.969c-0.072-0.598,0.287-1.132,0.801-1.194
	c0.515-0.063,0.99,0.371,1.062,0.969C201.4419,56.5706,201.0839,57.1056,200.5689,57.1676 M198.2019,51.7056
	c-0.044-0.6,0.339-1.118,0.856-1.156c0.517-0.037,0.971,0.418,1.015,1.019c0.044,0.6-0.339,1.117-0.856,1.155
	C198.6999,52.7616,198.2459,52.3056,198.2019,51.7056 M197.7469,47.3056c-0.037-0.601,0.352-1.113,0.87-1.145
	c0.517-0.032,0.966,0.429,1.003,1.03s-0.353,1.113-0.87,1.145C198.2329,48.3676,197.7839,47.9066,197.7469,47.3056
	 M196.7049,55.4476c-0.517,0.038-0.972-0.418-1.015-1.018c-0.044-0.601,0.339-1.118,0.856-1.156
	c0.516-0.037,0.971,0.418,1.015,1.019C197.6049,54.8926,197.2219,55.4096,196.7049,55.4476 M194.8839,49.7346
	c-0.037-0.6,0.352-1.113,0.869-1.145c0.518-0.031,0.967,0.43,1.004,1.03c0.037,0.601-0.353,1.114-0.87,1.145
	C195.3699,50.7966,194.9199,50.3356,194.8839,49.7346 M194.5789,44.8696c0-0.602,0.42-1.09,0.939-1.09
	c0.518,0,0.938,0.488,0.938,1.09c0,0.601-0.42,1.089-0.938,1.089C194.9989,45.9586,194.5789,45.4706,194.5789,44.8696
	 M193.0729,53.2986c-0.517,0.038-0.971-0.418-1.015-1.018c-0.044-0.6,0.339-1.118,0.856-1.156c0.516-0.037,0.971,0.419,1.015,1.019
	C193.9729,52.7436,193.5899,53.2606,193.0729,53.2986 M191.6029,47.6686c-0.037-0.6,0.352-1.113,0.869-1.145
	c0.518-0.032,0.967,0.43,1.004,1.03c0.037,0.601-0.353,1.113-0.87,1.145C192.0889,48.7306,191.6399,48.2696,191.6029,47.6686
	 M198.8169,41.8726c0.518,0,0.938,0.488,0.938,1.09c0,0.602-0.42,1.089-0.938,1.089c-0.519,0-0.939-0.487-0.939-1.089
	C197.8779,42.3606,198.2979,41.8726,198.8169,41.8726 M156.9879,57.6886c0,1.751-1.42,3.171-3.171,3.171h-0.007
	c-1.752,0-3.171-1.42-3.171-3.171v-0.007c0-1.751,1.419-3.171,3.171-3.171h0.007c1.751,0,3.171,1.42,3.171,3.171V57.6886z
	 M162.3949,25.9186c0-1.751,1.42-3.171,3.171-3.171h0.007c1.752,0,3.171,1.42,3.171,3.171v0.008c0,1.751-1.419,3.171-3.171,3.171
	h-0.007c-1.751,0-3.171-1.42-3.171-3.171V25.9186z M216.7689,61.7936c-0.173,0.001-0.347,0.013-0.522,0.013
	c-7.374,0-13.351-6.493-13.351-14.502c0-5.859,3.199-10.904,7.802-13.192c0.143-0.071,0.068-0.289-0.089-0.26
	c-4.54,0.85-9.155,1.942-13.525,3.458c-2.066,0.716-4.081,1.518-5.886,2.768c-1.6,1.109-2.989,2.505-4.083,4.115
	c-0.295,0.434-0.568,0.882-0.821,1.341c-0.028,0.051-0.055,0.102-0.08,0.154c-0.156,0.324-0.489,0.521-0.849,0.517
	c-0.963-0.011-7.151,0.003-12.006,0.015v-1.238c0-1.751-1.42-3.171-3.171-3.171h-7.39c-1.751,0-3.17-1.419-3.17-3.171v-0.008
	c0-1.751,1.418-3.171,3.169-3.171l21.081-0.009c1.751,0,3.171-1.419,3.171-3.17v-0.008c0-1.751-1.42-3.171-3.171-3.171h-6.091
	c-1.821,0-3.284-1.535-3.164-3.382c0.109-1.685,1.584-2.96,3.272-2.96c0,0,15.002,0,15.424,0c0.478-0.001,0.96-0.021,1.434-0.08
	c0.75-0.093,1.466-0.369,2.111-0.765c1.052-0.644,2.134-1.217,3.304-1.636c2.325-0.834,5.48-1.114,8.01-1.23
	c0.156-0.007,0.221-0.201,0.099-0.298c-0.683-0.545-2.463-1.757-5.572-2.541c-0.101-0.025-0.094-0.169,0.009-0.182
	c0.818-0.105,2.39-0.027,3.392,0.088c3.491,0.4,6.945,1.711,10.175,3.105c0.862,0.372,1.703,0.786,2.534,1.224
	c3.82,2.05,7.228,4.633,10.097,7.901c0.364,0.415,0.731,0.827,1.099,1.238c0.533,0.595,0.544,0.55,1.478,0.088
	c0.355-0.175,0.704-0.366,1.028-0.595c1.869-1.324,2.581-3.127,2.566-5.287c-0.007-1.11-0.322-2.176-0.797-3.189
	c-0.694-1.482-1.648-2.783-2.644-4.081c-4.13-5.381-8.991-6.559-9.346-6.602c-0.089-0.011-0.141,0.027-0.092,0.111
	c0.027,0.045,0.061,0.078,0.11,0.126c0.229,0.23,2.375,1.892,3.891,4.93c0.592,1.188,0.581,1.942,0.564,2.169
	c-0.057,0.779-0.811,0.649-1.314,0.365c-1.951-1.105-3.534-2.731-5.013-4.387c-1.279-1.431-2.623-2.797-4.112-4.013
	c-2.425-1.981-5.07-3.247-8.052-4.247c-1.655-0.555-3.357-0.937-5.095-1.065c-1.648-0.121-10.67-0.195-11.129-0.195h-41.774
	c-1.751,0-3.171,1.42-3.171,3.171v0.008c0,1.751-1.419,3.171-3.171,3.171h-12.261c-1.751,0-3.171,1.419-3.171,3.171v0.007
	c0,1.751-1.419,3.171-3.17,3.171h-12.825c-1.751,0-3.171,1.42-3.171,3.171v0.007c0,1.752,1.42,3.171,3.171,3.171h26.55
	c1.689,0,3.164,1.275,3.273,2.96c0.119,1.847-1.343,3.382-3.164,3.382h-10.616c-1.751,0-3.171,1.42-3.171,3.171
	c0,1.761-1.427,3.188-3.188,3.188h-24.159c-1.752,0-3.171,1.42-3.171,3.171v0.007c0,1.752-1.42,3.171-3.171,3.171h-1.562
	c-1.751,0-3.171,1.42-3.171,3.171v0.008c0,1.751,1.42,3.17,3.171,3.17h16.037c1.751,0,3.171,1.42,3.171,3.171v0.008
	c0,1.751,1.42,3.171,3.171,3.171h23.854c1.751,0,3.171,1.419,3.171,3.171v0.017c0,1.751-1.42,3.171-3.171,3.171h-2.275
	c-1.751,0-3.171,1.419-3.171,3.171v0.007c0,1.751,1.42,3.171,3.171,3.171h44.034c1.752,0,3.171-1.42,3.171-3.171v-0.007
	c0-1.752-1.419-3.171-3.171-3.171h-12.219c-1.751,0-3.171-1.42-3.171-3.171v-0.017c0-1.752,1.42-3.171,3.171-3.171h12.219
	c0.021,0,0.041-0.003,0.062-0.003c2.856,0.011,5.818,0.026,6.575,0.026c0.832,0,1.242,0.46,1.695,0.875
	c1.15,1.056,2.874,2.536,4.192,3.391c4.87,3.158,9.748,4.755,15.137,5.341c3.905,0.425,7.554-0.319,11.036-2.105
	C216.9509,61.9686,216.9399,61.7926,216.7689,61.7936"/>
</svg>
